<?xml version="1.0" encoding="UTF-8" standalone="no"?>
<!DOCTYPE svg PUBLIC "-//W3C//DTD SVG 1.1//EN"
 "http://www.w3.org/Graphics/SVG/1.1/DTD/svg11.dtd">
<!-- Generated by graphviz version 2.43.0 (0)
 -->
<!-- Title: BookstoreMySQL Pages: 1 -->
<svg width="1080pt" height="1340pt"
 viewBox="0.00 0.00 1079.94 1340.00" xmlns="http://www.w3.org/2000/svg" xmlns:xlink="http://www.w3.org/1999/xlink">
<g id="graph0" class="graph" transform="scale(1 1) rotate(0) translate(4 1336)">
<title>BookstoreMySQL</title>
<polygon fill="white" stroke="transparent" points="-4,4 -4,-1336 1075.94,-1336 1075.94,4 -4,4"/>
<!-- Publisher -->
<g id="node1" class="node">
<title>Publisher</title>
<polygon fill="none" stroke="black" points="390.29,-1224 309.29,-1224 309.29,-1188 390.29,-1188 390.29,-1224"/>
<text text-anchor="middle" x="349.79" y="-1202.3" font-family="Helvetica,sans-Serif" font-size="14.00">Publisher</text>
</g>
<!-- pub_id -->
<g id="node13" class="node">
<title>pub_id</title>
<ellipse fill="none" stroke="black" cx="577.13" cy="-1314" rx="111.58" ry="18"/>
<text text-anchor="middle" x="577.13" y="-1310.3" font-family="Helvetica,sans-Serif" font-size="14.00">&lt;u&gt;publisher_id&lt;/u&gt;</text>
</g>
<!-- Publisher&#45;&gt;pub_id -->
<g id="edge1" class="edge">
<title>Publisher&#45;&gt;pub_id</title>
<path fill="none" stroke="black" d="M370.28,-1224.23C391.12,-1242.74 425.9,-1270.9 460.79,-1287 473.11,-1292.69 486.75,-1297.24 500.2,-1300.86"/>
</g>
<!-- pub_name -->
<g id="node14" class="node">
<title>pub_name</title>
<ellipse fill="none" stroke="black" cx="577.13" cy="-1260" rx="83.39" ry="18"/>
<text text-anchor="middle" x="577.13" y="-1256.3" font-family="Helvetica,sans-Serif" font-size="14.00">publisher_name</text>
</g>
<!-- Publisher&#45;&gt;pub_name -->
<g id="edge2" class="edge">
<title>Publisher&#45;&gt;pub_name</title>
<path fill="none" stroke="black" d="M390.48,-1215.85C411.38,-1221.01 437.46,-1227.41 460.79,-1233 479.99,-1237.6 501,-1242.55 519.78,-1246.94"/>
</g>
<!-- pub_address -->
<g id="node15" class="node">
<title>pub_address</title>
<ellipse fill="none" stroke="black" cx="577.13" cy="-1206" rx="46.29" ry="18"/>
<text text-anchor="middle" x="577.13" y="-1202.3" font-family="Helvetica,sans-Serif" font-size="14.00">address</text>
</g>
<!-- Publisher&#45;&gt;pub_address -->
<g id="edge3" class="edge">
<title>Publisher&#45;&gt;pub_address</title>
<path fill="none" stroke="black" d="M390.3,-1206C429.55,-1206 489.68,-1206 530.84,-1206"/>
</g>
<!-- Published_By -->
<g id="node51" class="node">
<title>Published_By</title>
<polygon fill="none" stroke="black" points="577.13,-1116 476.75,-1098 577.13,-1080 677.5,-1098 577.13,-1116"/>
<text text-anchor="middle" x="577.13" y="-1094.3" font-family="Helvetica,sans-Serif" font-size="14.00">Published_By</text>
</g>
<!-- Publisher&#45;&gt;Published_By -->
<g id="edge39" class="edge">
<title>Publisher&#45;&gt;Published_By</title>
<path fill="none" stroke="black" d="M370.28,-1187.77C391.12,-1169.26 425.9,-1141.1 460.79,-1125 479.74,-1116.25 501.8,-1110.2 521.51,-1106.08"/>
<text text-anchor="middle" x="436.29" y="-1144.8" font-family="Times,serif" font-size="14.00">1</text>
</g>
<!-- Publisher_HasPhone -->
<g id="node58" class="node">
<title>Publisher_HasPhone</title>
<polygon fill="none" stroke="black" points="577.13,-1170 537.58,-1152 577.13,-1134 616.67,-1152 577.13,-1170"/>
<text text-anchor="middle" x="577.13" y="-1148.3" font-family="Helvetica,sans-Serif" font-size="14.00">Has</text>
</g>
<!-- Publisher&#45;&gt;Publisher_HasPhone -->
<g id="edge58" class="edge">
<title>Publisher&#45;&gt;Publisher_HasPhone</title>
<path fill="none" stroke="black" d="M390.48,-1196.15C411.38,-1190.99 437.46,-1184.59 460.79,-1179 491.58,-1171.62 527.07,-1163.34 550.45,-1157.93"/>
<text text-anchor="middle" x="436.29" y="-1189.8" font-family="Times,serif" font-size="14.00">1</text>
</g>
<!-- Author -->
<g id="node2" class="node">
<title>Author</title>
<polygon fill="none" stroke="black" points="381.79,-468 317.79,-468 317.79,-432 381.79,-432 381.79,-468"/>
<text text-anchor="middle" x="349.79" y="-446.3" font-family="Helvetica,sans-Serif" font-size="14.00">Author</text>
</g>
<!-- auth_id -->
<g id="node17" class="node">
<title>auth_id</title>
<ellipse fill="none" stroke="black" cx="577.13" cy="-450" rx="98.58" ry="18"/>
<text text-anchor="middle" x="577.13" y="-446.3" font-family="Helvetica,sans-Serif" font-size="14.00">&lt;u&gt;author_id&lt;/u&gt;</text>
</g>
<!-- Author&#45;&gt;auth_id -->
<g id="edge5" class="edge">
<title>Author&#45;&gt;auth_id</title>
<path fill="none" stroke="black" d="M382.12,-450C407.15,-450 443.66,-450 478.26,-450"/>
</g>
<!-- auth_name -->
<g id="node18" class="node">
<title>auth_name</title>
<ellipse fill="none" stroke="black" cx="577.13" cy="-396" rx="70.39" ry="18"/>
<text text-anchor="middle" x="577.13" y="-392.3" font-family="Helvetica,sans-Serif" font-size="14.00">author_name</text>
</g>
<!-- Author&#45;&gt;auth_name -->
<g id="edge6" class="edge">
<title>Author&#45;&gt;auth_name</title>
<path fill="none" stroke="black" d="M382.06,-442.23C404.06,-436.79 434.21,-429.37 460.79,-423 481.59,-418.01 504.52,-412.62 524.42,-407.98"/>
</g>
<!-- Written_By -->
<g id="node52" class="node">
<title>Written_By</title>
<polygon fill="none" stroke="black" points="577.13,-630 492.5,-612 577.13,-594 661.75,-612 577.13,-630"/>
<text text-anchor="middle" x="577.13" y="-608.3" font-family="Helvetica,sans-Serif" font-size="14.00">Written_By</text>
</g>
<!-- Author&#45;&gt;Written_By -->
<g id="edge42" class="edge">
<title>Author&#45;&gt;Written_By</title>
<path fill="none" stroke="black" d="M366.37,-468.24C384.89,-490.05 416.59,-527.79 442.79,-561 451.04,-571.47 449.62,-577.71 460.79,-585 477.75,-596.08 498.73,-602.63 518.13,-606.5"/>
<text text-anchor="middle" x="436.29" y="-564.8" font-family="Times,serif" font-size="14.00">N</text>
</g>
<!-- Book -->
<g id="node3" class="node">
<title>Book</title>
<polygon fill="none" stroke="black" points="376.79,-825 322.79,-825 322.79,-789 376.79,-789 376.79,-825"/>
<text text-anchor="middle" x="349.79" y="-803.3" font-family="Helvetica,sans-Serif" font-size="14.00">Book</text>
</g>
<!-- ReplenishmentOrder -->
<g id="node5" class="node">
<title>ReplenishmentOrder</title>
<polygon fill="none" stroke="black" points="657.13,-846 497.13,-846 497.13,-810 657.13,-810 657.13,-846"/>
<text text-anchor="middle" x="577.13" y="-824.3" font-family="Helvetica,sans-Serif" font-size="14.00">ReplenishmentOrder</text>
</g>
<!-- Book&#45;&gt;ReplenishmentOrder -->
<g id="edge56" class="edge">
<title>Book&#45;&gt;ReplenishmentOrder</title>
<path fill="none" stroke="black" d="M377,-806.33C395.43,-806.09 420.65,-806.23 442.79,-808 460.4,-809.41 479.23,-811.73 497.01,-814.3"/>
<text text-anchor="middle" x="436.29" y="-811.8" font-family="Times,serif" font-size="14.00">1</text>
</g>
<!-- isbn -->
<g id="node19" class="node">
<title>isbn</title>
<ellipse fill="none" stroke="black" cx="577.13" cy="-774" rx="75.29" ry="18"/>
<text text-anchor="middle" x="577.13" y="-770.3" font-family="Helvetica,sans-Serif" font-size="14.00">&lt;u&gt;isbn&lt;/u&gt;</text>
</g>
<!-- Book&#45;&gt;isbn -->
<g id="edge7" class="edge">
<title>Book&#45;&gt;isbn</title>
<path fill="none" stroke="black" d="M377.08,-803.15C410.05,-798.32 467.69,-789.88 512.48,-783.32"/>
</g>
<!-- title -->
<g id="node20" class="node">
<title>title</title>
<ellipse fill="none" stroke="black" cx="577.13" cy="-720" rx="27.9" ry="18"/>
<text text-anchor="middle" x="577.13" y="-716.3" font-family="Helvetica,sans-Serif" font-size="14.00">title</text>
</g>
<!-- Book&#45;&gt;title -->
<g id="edge8" class="edge">
<title>Book&#45;&gt;title</title>
<path fill="none" stroke="black" d="M376.94,-790.1C398.64,-776.74 430.71,-758.48 460.79,-747 490.38,-735.71 526.1,-728.23 549.88,-724.06"/>
</g>
<!-- pub_year -->
<g id="node21" class="node">
<title>pub_year</title>
<ellipse fill="none" stroke="black" cx="577.13" cy="-666" rx="52.79" ry="18"/>
<text text-anchor="middle" x="577.13" y="-662.3" font-family="Helvetica,sans-Serif" font-size="14.00">pub_year</text>
</g>
<!-- Book&#45;&gt;pub_year -->
<g id="edge9" class="edge">
<title>Book&#45;&gt;pub_year</title>
<path fill="none" stroke="black" d="M363.04,-788.86C381.26,-763.36 417.98,-717.32 460.79,-693 480.81,-681.62 505.39,-675.03 526.71,-671.22"/>
</g>
<!-- price -->
<g id="node22" class="node">
<title>price</title>
<ellipse fill="none" stroke="black" cx="577.13" cy="-1044" rx="33.29" ry="18"/>
<text text-anchor="middle" x="577.13" y="-1040.3" font-family="Helvetica,sans-Serif" font-size="14.00">price</text>
</g>
<!-- Book&#45;&gt;price -->
<g id="edge10" class="edge">
<title>Book&#45;&gt;price</title>
<path fill="none" stroke="black" d="M354.86,-825.21C365.03,-866.27 395.55,-966.46 460.79,-1017 484.6,-1035.45 518.93,-1041.63 543.94,-1043.53"/>
</g>
<!-- category -->
<g id="node23" class="node">
<title>category</title>
<ellipse fill="none" stroke="black" cx="577.13" cy="-990" rx="50.09" ry="18"/>
<text text-anchor="middle" x="577.13" y="-986.3" font-family="Helvetica,sans-Serif" font-size="14.00">category</text>
</g>
<!-- Book&#45;&gt;category -->
<g id="edge11" class="edge">
<title>Book&#45;&gt;category</title>
<path fill="none" stroke="black" d="M358.31,-825.22C372.91,-858.19 408.31,-927.61 460.79,-963 480.48,-976.28 505.88,-983.07 527.83,-986.53"/>
</g>
<!-- stock -->
<g id="node24" class="node">
<title>stock</title>
<ellipse fill="none" stroke="black" cx="577.13" cy="-936" rx="34.39" ry="18"/>
<text text-anchor="middle" x="577.13" y="-932.3" font-family="Helvetica,sans-Serif" font-size="14.00">stock</text>
</g>
<!-- Book&#45;&gt;stock -->
<g id="edge12" class="edge">
<title>Book&#45;&gt;stock</title>
<path fill="none" stroke="black" d="M365.1,-825.14C384.34,-848.25 420.78,-887.72 460.79,-909 486.48,-922.66 519.01,-929.47 542.97,-932.83"/>
</g>
<!-- threshold -->
<g id="node25" class="node">
<title>threshold</title>
<ellipse fill="none" stroke="black" cx="577.13" cy="-882" rx="53.09" ry="18"/>
<text text-anchor="middle" x="577.13" y="-878.3" font-family="Helvetica,sans-Serif" font-size="14.00">threshold</text>
</g>
<!-- Book&#45;&gt;threshold -->
<g id="edge13" class="edge">
<title>Book&#45;&gt;threshold</title>
<path fill="none" stroke="black" d="M376.95,-819.39C392.26,-826.51 412.01,-835.51 429.79,-843 443.4,-848.73 446.67,-850.64 460.79,-855 483.58,-862.04 509.4,-868.25 530.82,-872.93"/>
</g>
<!-- Book&#45;&gt;Published_By -->
<g id="edge40" class="edge">
<title>Book&#45;&gt;Published_By</title>
<path fill="none" stroke="black" d="M352.47,-825.31C357.99,-874 380.13,-1007.29 460.79,-1071 474.34,-1081.71 491.42,-1088.3 508.25,-1092.31"/>
<text text-anchor="middle" x="436.29" y="-1053.8" font-family="Times,serif" font-size="14.00">N</text>
</g>
<!-- Book&#45;&gt;Written_By -->
<g id="edge41" class="edge">
<title>Book&#45;&gt;Written_By</title>
<path fill="none" stroke="black" d="M357.37,-788.76C370.95,-753.87 405.51,-677.67 460.79,-639 477.05,-627.62 497.44,-620.99 516.53,-617.13"/>
<text text-anchor="middle" x="436.29" y="-666.8" font-family="Times,serif" font-size="14.00">N</text>
</g>
<!-- Contains_Cart -->
<g id="node53" class="node">
<title>Contains_Cart</title>
<polygon fill="none" stroke="black" points="577.13,-576 506.58,-558 577.13,-540 647.68,-558 577.13,-576"/>
<text text-anchor="middle" x="577.13" y="-554.3" font-family="Helvetica,sans-Serif" font-size="14.00">Contains</text>
</g>
<!-- Book&#45;&gt;Contains_Cart -->
<g id="edge45" class="edge">
<title>Book&#45;&gt;Contains_Cart</title>
<path fill="none" stroke="black" d="M353.98,-788.7C362.58,-745.4 390.49,-636.43 460.79,-585 478.21,-572.25 500.75,-565.42 521.27,-561.79"/>
<text text-anchor="middle" x="436.29" y="-614.8" font-family="Times,serif" font-size="14.00">N</text>
</g>
<!-- Contains_Order -->
<g id="node54" class="node">
<title>Contains_Order</title>
<polygon fill="none" stroke="black" points="577.13,-522 506.58,-504 577.13,-486 647.68,-504 577.13,-522"/>
<text text-anchor="middle" x="577.13" y="-500.3" font-family="Helvetica,sans-Serif" font-size="14.00">Contains</text>
</g>
<!-- Book&#45;&gt;Contains_Order -->
<g id="edge48" class="edge">
<title>Book&#45;&gt;Contains_Order</title>
<path fill="none" stroke="black" d="M353.3,-788.9C361.5,-732.53 389.32,-561.71 429.79,-526 455.99,-502.88 495.65,-498.12 527.08,-498.73"/>
<text text-anchor="middle" x="436.29" y="-529.8" font-family="Times,serif" font-size="14.00">N</text>
</g>
<!-- User -->
<g id="node4" class="node">
<title>User</title>
<polygon fill="none" stroke="black" points="54,-508 0,-508 0,-472 54,-472 54,-508"/>
<text text-anchor="middle" x="27" y="-486.3" font-family="Helvetica,sans-Serif" font-size="14.00">User</text>
</g>
<!-- u_id -->
<g id="node26" class="node">
<title>u_id</title>
<ellipse fill="none" stroke="black" cx="175.39" cy="-787" rx="75.29" ry="18"/>
<text text-anchor="middle" x="175.39" y="-783.3" font-family="Helvetica,sans-Serif" font-size="14.00">&lt;u&gt;u_id&lt;/u&gt;</text>
</g>
<!-- User&#45;&gt;u_id -->
<g id="edge14" class="edge">
<title>User&#45;&gt;u_id</title>
<path fill="none" stroke="black" d="M30.37,-508.02C37.89,-562.57 62.97,-724.32 100,-760 106.14,-765.91 113.66,-770.54 121.55,-774.17"/>
</g>
<!-- username -->
<g id="node27" class="node">
<title>username</title>
<ellipse fill="none" stroke="black" cx="175.39" cy="-733" rx="55.79" ry="18"/>
<text text-anchor="middle" x="175.39" y="-729.3" font-family="Helvetica,sans-Serif" font-size="14.00">username</text>
</g>
<!-- User&#45;&gt;username -->
<g id="edge15" class="edge">
<title>User&#45;&gt;username</title>
<path fill="none" stroke="black" d="M28.6,-508.01C30.97,-549.22 42.64,-651.02 100,-706 107.94,-713.61 118.18,-719.09 128.51,-723.05"/>
</g>
<!-- password -->
<g id="node28" class="node">
<title>password</title>
<ellipse fill="none" stroke="black" cx="175.39" cy="-679" rx="53.89" ry="18"/>
<text text-anchor="middle" x="175.39" y="-675.3" font-family="Helvetica,sans-Serif" font-size="14.00">password</text>
</g>
<!-- User&#45;&gt;password -->
<g id="edge16" class="edge">
<title>User&#45;&gt;password</title>
<path fill="none" stroke="black" d="M31.2,-508.02C37.99,-541.1 56.89,-611.81 100,-652 108.34,-659.78 119.09,-665.35 129.82,-669.33"/>
</g>
<!-- last_name -->
<g id="node29" class="node">
<title>last_name</title>
<ellipse fill="none" stroke="black" cx="175.39" cy="-625" rx="56.59" ry="18"/>
<text text-anchor="middle" x="175.39" y="-621.3" font-family="Helvetica,sans-Serif" font-size="14.00">last_name</text>
</g>
<!-- User&#45;&gt;last_name -->
<g id="edge17" class="edge">
<title>User&#45;&gt;last_name</title>
<path fill="none" stroke="black" d="M35.75,-508.28C46.72,-532.12 68.98,-573.65 100,-598 108.75,-604.87 119.42,-610.1 129.9,-614.03"/>
</g>
<!-- first_name -->
<g id="node30" class="node">
<title>first_name</title>
<ellipse fill="none" stroke="black" cx="175.39" cy="-571" rx="58.49" ry="18"/>
<text text-anchor="middle" x="175.39" y="-567.3" font-family="Helvetica,sans-Serif" font-size="14.00">first_name</text>
</g>
<!-- User&#45;&gt;first_name -->
<g id="edge18" class="edge">
<title>User&#45;&gt;first_name</title>
<path fill="none" stroke="black" d="M48.62,-508.06C62.44,-519.5 81.45,-533.96 100,-544 110.27,-549.56 121.92,-554.4 132.91,-558.39"/>
</g>
<!-- email -->
<g id="node31" class="node">
<title>email</title>
<ellipse fill="none" stroke="black" cx="175.39" cy="-517" rx="35.19" ry="18"/>
<text text-anchor="middle" x="175.39" y="-513.3" font-family="Helvetica,sans-Serif" font-size="14.00">email</text>
</g>
<!-- User&#45;&gt;email -->
<g id="edge19" class="edge">
<title>User&#45;&gt;email</title>
<path fill="none" stroke="black" d="M54.17,-494.83C78.76,-499.36 115.63,-506.16 142.05,-511.04"/>
</g>
<!-- user_phone -->
<g id="node32" class="node">
<title>user_phone</title>
<ellipse fill="none" stroke="black" cx="175.39" cy="-463" rx="38.99" ry="18"/>
<text text-anchor="middle" x="175.39" y="-459.3" font-family="Helvetica,sans-Serif" font-size="14.00">phone</text>
</g>
<!-- User&#45;&gt;user_phone -->
<g id="edge20" class="edge">
<title>User&#45;&gt;user_phone</title>
<path fill="none" stroke="black" d="M54.17,-485.17C77.78,-480.82 112.69,-474.38 138.82,-469.56"/>
</g>
<!-- address -->
<g id="node33" class="node">
<title>address</title>
<ellipse fill="none" stroke="black" cx="175.39" cy="-409" rx="46.29" ry="18"/>
<text text-anchor="middle" x="175.39" y="-405.3" font-family="Helvetica,sans-Serif" font-size="14.00">address</text>
</g>
<!-- User&#45;&gt;address -->
<g id="edge21" class="edge">
<title>User&#45;&gt;address</title>
<path fill="none" stroke="black" d="M48.62,-471.94C62.44,-460.5 81.45,-446.04 100,-436 111.96,-429.53 125.8,-424.02 138.27,-419.71"/>
</g>
<!-- role -->
<g id="node34" class="node">
<title>role</title>
<ellipse fill="none" stroke="black" cx="175.39" cy="-355" rx="27.1" ry="18"/>
<text text-anchor="middle" x="175.39" y="-351.3" font-family="Helvetica,sans-Serif" font-size="14.00">role</text>
</g>
<!-- User&#45;&gt;role -->
<g id="edge22" class="edge">
<title>User&#45;&gt;role</title>
<path fill="none" stroke="black" d="M35.75,-471.72C46.72,-447.88 68.98,-406.35 100,-382 114.27,-370.8 133.6,-363.97 148.98,-359.99"/>
</g>
<!-- Places_Order -->
<g id="node55" class="node">
<title>Places_Order</title>
<polygon fill="none" stroke="black" points="175.39,-265 120.09,-247 175.39,-229 230.69,-247 175.39,-265"/>
<text text-anchor="middle" x="175.39" y="-243.3" font-family="Helvetica,sans-Serif" font-size="14.00">Places</text>
</g>
<!-- User&#45;&gt;Places_Order -->
<g id="edge50" class="edge">
<title>User&#45;&gt;Places_Order</title>
<path fill="none" stroke="black" d="M28.33,-471.69C30.12,-429.86 40.67,-326.85 100,-274 111.18,-264.04 126.33,-257.67 140.04,-253.63"/>
<text text-anchor="middle" x="77" y="-310.8" font-family="Times,serif" font-size="14.00">1</text>
</g>
<!-- Has_Cart -->
<g id="node56" class="node">
<title>Has_Cart</title>
<polygon fill="none" stroke="black" points="175.39,-319 135.85,-301 175.39,-283 214.94,-301 175.39,-319"/>
<text text-anchor="middle" x="175.39" y="-297.3" font-family="Helvetica,sans-Serif" font-size="14.00">Has</text>
</g>
<!-- User&#45;&gt;Has_Cart -->
<g id="edge52" class="edge">
<title>User&#45;&gt;Has_Cart</title>
<path fill="none" stroke="black" d="M31,-471.77C37.46,-438.32 55.85,-367.04 100,-328 112.97,-316.53 131.19,-309.81 146.36,-305.94"/>
<text text-anchor="middle" x="77" y="-364.8" font-family="Times,serif" font-size="14.00">1</text>
</g>
<!-- Has_CreditCard -->
<g id="node57" class="node">
<title>Has_CreditCard</title>
<polygon fill="none" stroke="black" points="175.39,-198 135.85,-180 175.39,-162 214.94,-180 175.39,-198"/>
<text text-anchor="middle" x="175.39" y="-176.3" font-family="Helvetica,sans-Serif" font-size="14.00">Has</text>
</g>
<!-- User&#45;&gt;Has_CreditCard -->
<g id="edge54" class="edge">
<title>User&#45;&gt;Has_CreditCard</title>
<path fill="none" stroke="black" d="M27.26,-471.74C26.36,-423.67 30.72,-292.36 100,-220 114.5,-204.85 136.01,-194.15 152.18,-187.65"/>
<text text-anchor="middle" x="77" y="-259.8" font-family="Times,serif" font-size="14.00">1</text>
</g>
<!-- ReplenishmentOrder&#45;&gt;Book -->
<g id="edge57" class="edge">
<title>ReplenishmentOrder&#45;&gt;Book</title>
<path fill="none" stroke="black" d="M496.96,-827.69C475.14,-826.95 451.5,-825.55 429.79,-823 412,-820.91 392.25,-816.91 376.94,-813.43"/>
<text text-anchor="middle" x="436.29" y="-827.8" font-family="Times,serif" font-size="14.00">N</text>
</g>
<!-- ro_id -->
<g id="node35" class="node">
<title>ro_id</title>
<ellipse fill="none" stroke="black" cx="835.41" cy="-747" rx="92.88" ry="18"/>
<text text-anchor="middle" x="835.41" y="-743.3" font-family="Helvetica,sans-Serif" font-size="14.00">&lt;u&gt;order_id&lt;/u&gt;</text>
</g>
<!-- ReplenishmentOrder&#45;&gt;ro_id -->
<g id="edge23" class="edge">
<title>ReplenishmentOrder&#45;&gt;ro_id</title>
<path fill="none" stroke="black" d="M657.17,-812.54C669.49,-809.26 681.95,-805.43 693.47,-801 716.68,-792.08 719.51,-783.56 742.47,-774 753.83,-769.27 766.31,-765.01 778.3,-761.36"/>
</g>
<!-- ro_date -->
<g id="node36" class="node">
<title>ro_date</title>
<ellipse fill="none" stroke="black" cx="835.41" cy="-909" rx="59.29" ry="18"/>
<text text-anchor="middle" x="835.41" y="-905.3" font-family="Helvetica,sans-Serif" font-size="14.00">order_date</text>
</g>
<!-- ReplenishmentOrder&#45;&gt;ro_date -->
<g id="edge24" class="edge">
<title>ReplenishmentOrder&#45;&gt;ro_date</title>
<path fill="none" stroke="black" d="M657.17,-843.46C669.49,-846.74 681.95,-850.57 693.47,-855 716.68,-863.92 719.51,-872.44 742.47,-882 757.21,-888.14 773.82,-893.47 788.83,-897.74"/>
</g>
<!-- ro_quantity -->
<g id="node37" class="node">
<title>ro_quantity</title>
<ellipse fill="none" stroke="black" cx="835.41" cy="-855" rx="48.19" ry="18"/>
<text text-anchor="middle" x="835.41" y="-851.3" font-family="Helvetica,sans-Serif" font-size="14.00">quantity</text>
</g>
<!-- ReplenishmentOrder&#45;&gt;ro_quantity -->
<g id="edge25" class="edge">
<title>ReplenishmentOrder&#45;&gt;ro_quantity</title>
<path fill="none" stroke="black" d="M657.46,-836.36C700.68,-840.91 752.61,-846.38 788.99,-850.22"/>
</g>
<!-- ro_status -->
<g id="node38" class="node">
<title>ro_status</title>
<ellipse fill="none" stroke="black" cx="835.41" cy="-801" rx="38.19" ry="18"/>
<text text-anchor="middle" x="835.41" y="-797.3" font-family="Helvetica,sans-Serif" font-size="14.00">status</text>
</g>
<!-- ReplenishmentOrder&#45;&gt;ro_status -->
<g id="edge26" class="edge">
<title>ReplenishmentOrder&#45;&gt;ro_status</title>
<path fill="none" stroke="black" d="M657.46,-819.64C704.36,-814.7 761.5,-808.68 797.92,-804.84"/>
</g>
<!-- CustomerOrder -->
<g id="node6" class="node">
<title>CustomerOrder</title>
<polygon fill="none" stroke="black" points="411.79,-265 287.79,-265 287.79,-229 411.79,-229 411.79,-265"/>
<text text-anchor="middle" x="349.79" y="-243.3" font-family="Helvetica,sans-Serif" font-size="14.00">CustomerOrder</text>
</g>
<!-- co_id -->
<g id="node39" class="node">
<title>co_id</title>
<ellipse fill="none" stroke="black" cx="577.13" cy="-288" rx="92.88" ry="18"/>
<text text-anchor="middle" x="577.13" y="-284.3" font-family="Helvetica,sans-Serif" font-size="14.00">&lt;u&gt;order_id&lt;/u&gt;</text>
</g>
<!-- CustomerOrder&#45;&gt;co_id -->
<g id="edge27" class="edge">
<title>CustomerOrder&#45;&gt;co_id</title>
<path fill="none" stroke="black" d="M412.06,-258.15C442.04,-263.6 478.19,-270.18 508.92,-275.77"/>
</g>
<!-- co_date -->
<g id="node40" class="node">
<title>co_date</title>
<ellipse fill="none" stroke="black" cx="577.13" cy="-234" rx="59.29" ry="18"/>
<text text-anchor="middle" x="577.13" y="-230.3" font-family="Helvetica,sans-Serif" font-size="14.00">order_date</text>
</g>
<!-- CustomerOrder&#45;&gt;co_date -->
<g id="edge28" class="edge">
<title>CustomerOrder&#45;&gt;co_date</title>
<path fill="none" stroke="black" d="M412.06,-243.46C445.3,-241.55 486.12,-239.19 518.73,-237.31"/>
</g>
<!-- co_total -->
<g id="node41" class="node">
<title>co_total</title>
<ellipse fill="none" stroke="black" cx="577.13" cy="-180" rx="57.69" ry="18"/>
<text text-anchor="middle" x="577.13" y="-176.3" font-family="Helvetica,sans-Serif" font-size="14.00">total_price</text>
</g>
<!-- CustomerOrder&#45;&gt;co_total -->
<g id="edge29" class="edge">
<title>CustomerOrder&#45;&gt;co_total</title>
<path fill="none" stroke="black" d="M396.68,-228.93C416.25,-221.59 439.46,-213.35 460.79,-207 482.76,-200.46 507.48,-194.49 528.37,-189.84"/>
</g>
<!-- CustomerOrder&#45;&gt;Contains_Order -->
<g id="edge47" class="edge">
<title>CustomerOrder&#45;&gt;Contains_Order</title>
<path fill="none" stroke="black" d="M371.17,-265.14C384.41,-277.92 401.13,-296.06 411.79,-315 421.01,-331.39 447.07,-464.13 460.79,-477 475.56,-490.86 496.04,-498.05 515.65,-501.65"/>
<text text-anchor="middle" x="436.29" y="-431.8" font-family="Times,serif" font-size="14.00">1</text>
</g>
<!-- Cart -->
<g id="node7" class="node">
<title>Cart</title>
<polygon fill="none" stroke="black" points="376.79,-360 322.79,-360 322.79,-324 376.79,-324 376.79,-360"/>
<text text-anchor="middle" x="349.79" y="-338.3" font-family="Helvetica,sans-Serif" font-size="14.00">Cart</text>
</g>
<!-- cart_id -->
<g id="node42" class="node">
<title>cart_id</title>
<ellipse fill="none" stroke="black" cx="577.13" cy="-342" rx="87.18" ry="18"/>
<text text-anchor="middle" x="577.13" y="-338.3" font-family="Helvetica,sans-Serif" font-size="14.00">&lt;u&gt;cart_id&lt;/u&gt;</text>
</g>
<!-- Cart&#45;&gt;cart_id -->
<g id="edge30" class="edge">
<title>Cart&#45;&gt;cart_id</title>
<path fill="none" stroke="black" d="M377.08,-342C404.71,-342 449.66,-342 489.86,-342"/>
</g>
<!-- Cart&#45;&gt;Contains_Cart -->
<g id="edge44" class="edge">
<title>Cart&#45;&gt;Contains_Cart</title>
<path fill="none" stroke="black" d="M365.8,-360C378.77,-376 397.62,-400.3 411.79,-423 427.88,-448.8 430.44,-456.21 442.79,-484 451.87,-504.44 443.93,-516.29 460.79,-531 476.28,-544.52 497.27,-551.6 517.1,-555.2"/>
<text text-anchor="middle" x="436.29" y="-487.8" font-family="Times,serif" font-size="14.00">1</text>
</g>
<!-- CreditCard -->
<g id="node8" class="node">
<title>CreditCard</title>
<polygon fill="none" stroke="black" points="394.79,-117 304.79,-117 304.79,-81 394.79,-81 394.79,-117"/>
<text text-anchor="middle" x="349.79" y="-95.3" font-family="Helvetica,sans-Serif" font-size="14.00">CreditCard</text>
</g>
<!-- card_number -->
<g id="node43" class="node">
<title>card_number</title>
<ellipse fill="none" stroke="black" cx="577.13" cy="-126" rx="116.18" ry="18"/>
<text text-anchor="middle" x="577.13" y="-122.3" font-family="Helvetica,sans-Serif" font-size="14.00">&lt;u&gt;card_number&lt;/u&gt;</text>
</g>
<!-- CreditCard&#45;&gt;card_number -->
<g id="edge31" class="edge">
<title>CreditCard&#45;&gt;card_number</title>
<path fill="none" stroke="black" d="M395.04,-104.3C420.54,-107.36 453.58,-111.32 484.44,-115.01"/>
</g>
<!-- cardholder_name -->
<g id="node44" class="node">
<title>cardholder_name</title>
<ellipse fill="none" stroke="black" cx="577.13" cy="-72" rx="89.08" ry="18"/>
<text text-anchor="middle" x="577.13" y="-68.3" font-family="Helvetica,sans-Serif" font-size="14.00">cardholder_name</text>
</g>
<!-- CreditCard&#45;&gt;cardholder_name -->
<g id="edge32" class="edge">
<title>CreditCard&#45;&gt;cardholder_name</title>
<path fill="none" stroke="black" d="M395.04,-93.7C424.9,-90.12 465.09,-85.3 500.02,-81.12"/>
</g>
<!-- expiration_date -->
<g id="node45" class="node">
<title>expiration_date</title>
<ellipse fill="none" stroke="black" cx="577.13" cy="-18" rx="80.69" ry="18"/>
<text text-anchor="middle" x="577.13" y="-14.3" font-family="Helvetica,sans-Serif" font-size="14.00">expiration_date</text>
</g>
<!-- CreditCard&#45;&gt;expiration_date -->
<g id="edge33" class="edge">
<title>CreditCard&#45;&gt;expiration_date</title>
<path fill="none" stroke="black" d="M382.68,-80.94C404.2,-69.37 433.54,-54.73 460.79,-45 478.12,-38.81 497.43,-33.64 515.22,-29.55"/>
</g>
<!-- PublisherPhone -->
<g id="node9" class="node">
<title>PublisherPhone</title>
<polygon fill="none" stroke="black" points="897.41,-1170 773.41,-1170 773.41,-1134 897.41,-1134 897.41,-1170"/>
<text text-anchor="middle" x="835.41" y="-1148.3" font-family="Helvetica,sans-Serif" font-size="14.00">PublisherPhone</text>
</g>
<!-- phone -->
<g id="node16" class="node">
<title>phone</title>
<ellipse fill="none" stroke="black" cx="1018.64" cy="-1152" rx="38.99" ry="18"/>
<text text-anchor="middle" x="1018.64" y="-1148.3" font-family="Helvetica,sans-Serif" font-size="14.00">phone</text>
</g>
<!-- PublisherPhone&#45;&gt;phone -->
<g id="edge4" class="edge">
<title>PublisherPhone&#45;&gt;phone</title>
<path fill="none" stroke="black" d="M897.51,-1152C924.64,-1152 955.73,-1152 979.49,-1152"/>
</g>
<!-- BookAuthor -->
<g id="node10" class="node">
<title>BookAuthor</title>
<polygon fill="none" stroke="black" points="884.41,-638 786.41,-638 786.41,-602 884.41,-602 884.41,-638"/>
<polygon fill="none" stroke="black" points="888.41,-642 782.41,-642 782.41,-598 888.41,-598 888.41,-642"/>
<text text-anchor="middle" x="835.41" y="-616.3" font-family="Helvetica,sans-Serif" font-size="14.00">BookAuthor</text>
</g>
<!-- ba_isbn -->
<g id="node46" class="node">
<title>ba_isbn</title>
<ellipse fill="none" stroke="black" cx="1018.64" cy="-670" rx="29.8" ry="18"/>
<text text-anchor="middle" x="1018.64" y="-666.3" font-family="Helvetica,sans-Serif" font-size="14.00">isbn</text>
</g>
<!-- BookAuthor&#45;&gt;ba_isbn -->
<g id="edge34" class="edge">
<title>BookAuthor&#45;&gt;ba_isbn</title>
<path fill="none" stroke="black" d="M888.83,-634.46C922.28,-643.69 964.24,-655.27 991,-662.65"/>
</g>
<!-- ba_author_id -->
<g id="node47" class="node">
<title>ba_author_id</title>
<ellipse fill="none" stroke="black" cx="1018.64" cy="-616" rx="53.09" ry="18"/>
<text text-anchor="middle" x="1018.64" y="-612.3" font-family="Helvetica,sans-Serif" font-size="14.00">author_id</text>
</g>
<!-- BookAuthor&#45;&gt;ba_author_id -->
<g id="edge35" class="edge">
<title>BookAuthor&#45;&gt;ba_author_id</title>
<path fill="none" stroke="black" d="M888.83,-618.84C912.87,-618.31 941.31,-617.68 965.34,-617.15"/>
</g>
<!-- CartItem -->
<g id="node11" class="node">
<title>CartItem</title>
<polygon fill="none" stroke="black" points="873.91,-576 796.91,-576 796.91,-540 873.91,-540 873.91,-576"/>
<polygon fill="none" stroke="black" points="877.91,-580 792.91,-580 792.91,-536 877.91,-536 877.91,-580"/>
<text text-anchor="middle" x="835.41" y="-554.3" font-family="Helvetica,sans-Serif" font-size="14.00">CartItem</text>
</g>
<!-- ci_quantity -->
<g id="node48" class="node">
<title>ci_quantity</title>
<ellipse fill="none" stroke="black" cx="1018.64" cy="-558" rx="48.19" ry="18"/>
<text text-anchor="middle" x="1018.64" y="-554.3" font-family="Helvetica,sans-Serif" font-size="14.00">quantity</text>
</g>
<!-- CartItem&#45;&gt;ci_quantity -->
<g id="edge36" class="edge">
<title>CartItem&#45;&gt;ci_quantity</title>
<path fill="none" stroke="black" d="M877.99,-558C905.58,-558 941.85,-558 970.51,-558"/>
</g>
<!-- CustomerOrderItem -->
<g id="node12" class="node">
<title>CustomerOrderItem</title>
<polygon fill="none" stroke="black" points="912.91,-514 757.91,-514 757.91,-478 912.91,-478 912.91,-514"/>
<polygon fill="none" stroke="black" points="916.91,-518 753.91,-518 753.91,-474 916.91,-474 916.91,-518"/>
<text text-anchor="middle" x="835.41" y="-492.3" font-family="Helvetica,sans-Serif" font-size="14.00">CustomerOrderItem</text>
</g>
<!-- coi_quantity -->
<g id="node49" class="node">
<title>coi_quantity</title>
<ellipse fill="none" stroke="black" cx="1018.64" cy="-446" rx="48.19" ry="18"/>
<text text-anchor="middle" x="1018.64" y="-442.3" font-family="Helvetica,sans-Serif" font-size="14.00">quantity</text>
</g>
<!-- CustomerOrderItem&#45;&gt;coi_quantity -->
<g id="edge37" class="edge">
<title>CustomerOrderItem&#45;&gt;coi_quantity</title>
<path fill="none" stroke="black" d="M916.16,-474C938.2,-467.92 961.1,-461.6 979.56,-456.51"/>
</g>
<!-- coi_price -->
<g id="node50" class="node">
<title>coi_price</title>
<ellipse fill="none" stroke="black" cx="1018.64" cy="-500" rx="33.29" ry="18"/>
<text text-anchor="middle" x="1018.64" y="-496.3" font-family="Helvetica,sans-Serif" font-size="14.00">price</text>
</g>
<!-- CustomerOrderItem&#45;&gt;coi_price -->
<g id="edge38" class="edge">
<title>CustomerOrderItem&#45;&gt;coi_price</title>
<path fill="none" stroke="black" d="M916.96,-497.78C941.16,-498.31 966.33,-498.87 985.45,-499.29"/>
</g>
<!-- Written_By&#45;&gt;BookAuthor -->
<g id="edge43" class="edge">
<title>Written_By&#45;&gt;BookAuthor</title>
<path fill="none" stroke="black" stroke-width="3" d="M651.22,-614.28C693.09,-615.59 744.64,-617.2 782.38,-618.38"/>
</g>
<!-- Contains_Cart&#45;&gt;CartItem -->
<g id="edge46" class="edge">
<title>Contains_Cart&#45;&gt;CartItem</title>
<path fill="none" stroke="black" stroke-width="3" d="M647.82,-558C694.21,-558 753.61,-558 792.78,-558"/>
</g>
<!-- Contains_Order&#45;&gt;CustomerOrderItem -->
<g id="edge49" class="edge">
<title>Contains_Order&#45;&gt;CustomerOrderItem</title>
<path fill="none" stroke="black" stroke-width="3" d="M640.16,-502.06C674.24,-501 716.9,-499.67 753.55,-498.52"/>
</g>
<!-- Places_Order&#45;&gt;CustomerOrder -->
<g id="edge51" class="edge">
<title>Places_Order&#45;&gt;CustomerOrder</title>
<path fill="none" stroke="black" stroke-width="3" d="M230.94,-247C248.99,-247 269.19,-247 287.7,-247"/>
</g>
<!-- Has_Cart&#45;&gt;Cart -->
<g id="edge53" class="edge">
<title>Has_Cart&#45;&gt;Cart</title>
<path fill="none" stroke="black" stroke-width="3" d="M201.83,-307.05C234.24,-314.76 289.96,-328.01 322.68,-335.79"/>
</g>
<!-- Has_CreditCard&#45;&gt;CreditCard -->
<g id="edge55" class="edge">
<title>Has_CreditCard&#45;&gt;CreditCard</title>
<path fill="none" stroke="black" stroke-width="3" d="M195.5,-171.02C223.12,-158.05 274.77,-133.78 310.43,-117.02"/>
</g>
<!-- Publisher_HasPhone&#45;&gt;PublisherPhone -->
<g id="edge59" class="edge">
<title>Publisher_HasPhone&#45;&gt;PublisherPhone</title>
<path fill="none" stroke="black" d="M616.77,-1152C658.16,-1152 724.44,-1152 772.99,-1152"/>
<text text-anchor="middle" x="717.97" y="-1155.8" font-family="Times,serif" font-size="14.00">N</text>
</g>
</g>
</svg>
